<?xml version="1.0" encoding="iso-8859-1"?>
<!-- Uploaded to: SVG Repo, www.svgrepo.com, Generator: SVG Repo Mixer Tools -->
<svg height="800px" width="800px" version="1.1" id="Capa_1" xmlns="http://www.w3.org/2000/svg" xmlns:xlink="http://www.w3.org/1999/xlink" 
	 viewBox="0 0 512 512" xml:space="preserve">
<path style="fill:#5B699C;" d="M255.999,0.001C114.84,0.003,0,114.842,0,255.999c0,141.159,114.841,256,256.001,256
	C397.159,511.999,512,397.159,512,256.001C511.997,114.842,397.156,0.001,255.999,0.001z M270.287,270.291
	c-3.758,3.759-8.972,5.916-14.294,5.916c-5.321,0-10.523-2.156-14.282-5.916c-3.76-3.773-5.916-8.973-5.916-14.294
	c0-5.322,2.156-10.536,5.916-14.296c3.759-3.759,8.96-5.915,14.282-5.915s10.536,2.156,14.294,5.915
	c3.76,3.759,5.916,8.973,5.916,14.296C276.204,261.318,274.048,266.52,270.287,270.291z"/>
<g>
	<path style="fill:#2D4175;" d="M256,0.001v235.786c5.319,0.003,10.531,2.157,14.287,5.915c3.76,3.759,5.916,8.973,5.916,14.296
		c0,5.321-2.156,10.523-5.916,14.294c-3.756,3.758-8.968,5.914-14.287,5.916v235.791c0.001,0,0.001,0,0.001,0
		C397.159,511.999,512,397.159,512,256.001C511.997,114.842,397.156,0.003,256,0.001z"/>
	<path style="fill:#2D4175;" d="M255.999,431.158c-96.583,0-175.157-78.575-175.157-175.158c0-11.162,9.049-20.21,20.21-20.21
		s20.21,9.049,20.21,20.21c0,74.295,60.441,134.738,134.736,134.738c11.162,0,20.21,9.049,20.21,20.21
		C276.209,422.109,267.16,431.158,255.999,431.158z"/>
</g>
<path style="fill:#5B699C;" d="M410.945,276.212L410.945,276.212c-11.163,0-20.21-9.049-20.21-20.21
	c0.001-35.991-14.013-69.827-39.46-95.275c-25.448-25.449-59.284-39.463-95.276-39.463c-11.162,0-20.21-9.049-20.21-20.21
	s9.049-20.21,20.21-20.21c46.79,0,90.776,18.219,123.858,51.302c33.083,33.083,51.301,77.069,51.299,123.856
	C431.156,267.163,422.105,276.212,410.945,276.212z"/>
<path style="fill:#DC73AE;" d="M256.001,161.685c-52.007,0-94.315,42.308-94.315,94.314c0,52.007,42.309,94.315,94.314,94.315
	c0.001,0,0.004,0,0.004,0h0.003c52.003,0,94.31-42.309,94.31-94.315S308.008,161.685,256.001,161.685z M270.287,270.291
	c-3.758,3.759-8.972,5.916-14.294,5.916c-5.321,0-10.523-2.156-14.282-5.916c-3.76-3.773-5.916-8.973-5.916-14.294
	c0-5.322,2.156-10.536,5.916-14.296c3.759-3.759,8.96-5.915,14.282-5.915s10.536,2.156,14.294,5.915
	c3.76,3.759,5.916,8.973,5.916,14.296C276.204,261.318,274.048,266.52,270.287,270.291z"/>
<path style="fill:#DA50A1;" d="M256.001,161.685L256.001,161.685L256,235.787c5.319,0.003,10.531,2.157,14.287,5.915
	c3.76,3.759,5.916,8.973,5.916,14.296c0,5.321-2.156,10.523-5.916,14.294c-3.756,3.758-8.968,5.914-14.287,5.916v74.106
	c0.001,0,0.004,0,0.004,0h0.003c52.003,0,94.31-42.309,94.31-94.315S308.008,161.685,256.001,161.685z"/>
</svg>